<svg width="64" height="64" viewBox="0 0 64 64" fill="none" xmlns="http://www.w3.org/2000/svg">
<path d="M51.2001 36.2667C51.2001 46.8706 42.604 55.4667 32 55.4667C21.3961 55.4667 12.8 46.8706 12.8 36.2667C12.8 28.3806 17.5634 21.6196 24.3623 18.6645L25.1137 19.2491L28.4156 21.8172C21.9162 23.4334 17.0667 29.274 17.0667 36.2667C17.0667 44.5009 23.7658 51.2 32 51.2C40.2343 51.2 46.9334 44.5009 46.9334 36.2667C46.9334 29.274 42.0839 23.4334 35.5845 21.8172L39.6378 18.665C46.4367 21.6201 51.2001 28.3806 51.2001 36.2667ZM32 19.2L42.6667 10.9035L38.4001 4.26666H25.6L21.3334 10.9035L27.7334 15.8814L32 19.2Z" fill="#142032"/>
</svg>
