<svg width="64" height="64" viewBox="0 0 64 64" fill="none" xmlns="http://www.w3.org/2000/svg">
<path d="M11.9124 57.3986C11.9124 58.1767 12.5432 58.8075 13.3213 58.8075H50.6786C51.4568 58.8075 52.0876 58.1767 52.0876 57.3986V51.8594H11.9124V57.3986Z" fill="#142032"/>
<path d="M62.591 5.1925C58.4827 5.1925 46.7401 5.1925 42.748 5.1925C42.0446 5.1925 41.4519 5.70979 41.3545 6.40642C40.7054 11.0461 36.4184 14.6317 31.9999 14.6317C27.5814 14.6317 23.2943 11.0461 22.6454 6.40642C22.5481 5.71118 21.9538 5.1925 21.2519 5.1925C17.2957 5.1925 5.64562 5.1925 1.40897 5.1925C0.630816 5.1925 0 5.82318 0 6.6012V21.7628C0 22.5409 0.630816 23.1717 1.40897 23.1717H11.9123V47.8248H52.0875V23.1717H62.591C63.3692 23.1717 64 22.5409 64 21.7628V6.60148C63.9999 5.82332 63.3692 5.1925 62.591 5.1925Z" fill="#142032"/>
</svg>
