<svg width="64" height="64" viewBox="0 0 64 64" fill="none" xmlns="http://www.w3.org/2000/svg">
<path d="M42.4502 5.35359V2.1969C42.4502 0.983704 41.4663 0 40.2533 0C39.0399 0 38.0564 0.983704 38.0564 2.1969V4.903C38.3275 4.88857 38.5968 4.88059 38.864 4.88059C40.2268 4.88038 41.4221 5.07065 42.4502 5.35359Z" fill="#142032"/>
<path d="M25.9436 4.903V2.1969C25.9436 0.983704 24.9599 0 23.7469 0C22.5335 0 21.55 0.983704 21.55 2.1969V5.35359C22.5781 5.07065 23.7735 4.88038 25.136 4.88038C25.4036 4.88038 25.673 4.88835 25.9436 4.903Z" fill="#142032"/>
<path d="M23.1507 19.0446L24.4415 24.467H39.5584L40.8492 19.0446C44.7023 14.9269 45.0381 10.6182 45.0385 10.4495C45.0385 10.2741 44.97 10.1084 44.8454 9.9838C44.7629 9.90213 42.7537 7.95605 38.8639 7.95605C36.9152 7.95605 34.8164 8.4506 32.6253 9.42568L31.9999 9.70388L31.3746 9.42568C29.1839 8.4506 27.0847 7.95605 25.136 7.95605C21.2454 7.95605 19.2366 9.90256 19.1528 9.98552C19.0299 10.1084 18.9612 10.2741 18.9612 10.4501C18.962 10.6182 19.2971 14.9269 23.1507 19.0446Z" fill="#142032"/>
<path d="M41.9763 27.5424H22.0239C18.9032 30.5323 17.1724 34.6557 17.1724 39.3361C17.1724 43.7232 18.7633 55.8871 21.363 62.5965C21.6905 63.4426 22.504 63.9998 23.411 63.9998H40.5886C41.4956 63.9998 42.3095 63.4426 42.637 62.5965C45.2365 55.8869 46.8276 43.7232 46.8276 39.3361C46.8278 34.6557 45.097 30.5323 41.9763 27.5424Z" fill="#142032"/>
</svg>
