<svg width="64" height="64" viewBox="0 0 64 64" fill="none" xmlns="http://www.w3.org/2000/svg">
<g clip-path="url(#clip0_949_5251)">
<path d="M3.42857 13.7143C3.42857 13.7143 0 24 0 37.7143H25.1429C27.4286 37.7143 31.1149 42.2857 31.0857 42.2857H64C64 28.5714 50.2857 27.4286 45.7143 27.4286H36.5714C32 18.2857 22.8571 13.7143 22.8571 13.7143H21.7143C18.2857 20.6099 9.21816 20.6099 4.57143 13.7143H3.42857ZM25.1429 18.2857C26.4052 18.2857 27.4286 19.3091 27.4286 20.5714C27.4286 21.8338 26.4052 22.8572 25.1429 22.8572C23.8805 22.8572 22.8571 21.8338 22.8571 20.5714C22.8571 19.3091 23.8805 18.2857 25.1429 18.2857ZM29.7143 22.8572C30.9767 22.8572 32 23.8805 32 25.1429C32 26.4052 30.9767 27.4286 29.7143 27.4286C28.4519 27.4286 27.4286 26.4052 27.4286 25.1429C27.4286 23.8805 28.4519 22.8572 29.7143 22.8572ZM0 41.1429V50.2857H24V41.1429H0ZM33.3714 45.7143C33.3714 45.7143 36.5714 50.2857 38.8571 50.2857H64V45.7143H33.3714Z" fill="#142032"/>
</g>
<defs>
<clipPath id="clip0_949_5251">
<rect width="64" height="64" fill="white"/>
</clipPath>
</defs>
</svg>
