<svg width="64" height="64" viewBox="0 0 64 64" fill="none" xmlns="http://www.w3.org/2000/svg">
<path d="M31.9973 26.5091L35.2185 8.45374L32.6343 4.88795L33.9024 2.34448H30.0929L31.3636 4.88795L28.7754 8.45374L31.9973 26.5091Z" fill="#142032"/>
<path d="M50.4425 57.8734H55.5315L54.2614 36.2462L51.7126 7.6324L39.631 2.54547L38.3589 0.00200326L37.0882 5.08894L31.9979 34.3411L26.911 5.08693L25.6369 0L24.3662 2.54347L12.2839 7.62973L9.73906 36.2462L8.46899 57.8734H13.5566L18.1988 29.8064L19.9136 36.2429L14.8247 57.641L29.4518 64L31.9952 51.4843L34.5374 64L49.1671 57.641L44.0755 36.2429L45.7916 29.8064L50.4425 57.8734ZM45.4063 18.2022L40.2373 18.9187L43.6555 14.7039L45.4063 16.0568V18.2022Z" fill="#142032"/>
</svg>
