<svg width="14" height="14" viewBox="0 0 14 14" fill="none" xmlns="http://www.w3.org/2000/svg">
<g clip-path="url(#clip0_949_5628)">
<path d="M7.00024 1.26117C8.86924 1.26117 9.09091 1.26817 9.82883 1.302C10.6257 1.33817 11.3647 1.498 11.9335 2.06675C12.5022 2.6355 12.6621 3.37458 12.6982 4.17142C12.7321 4.90933 12.7391 5.131 12.7391 7C12.7391 8.869 12.7321 9.09067 12.6982 9.82858C12.6621 10.6254 12.5022 11.3645 11.9335 11.9333C11.3647 12.502 10.6257 12.6618 9.82883 12.698C9.09091 12.7318 8.86924 12.7388 7.00024 12.7388C5.13124 12.7388 4.90958 12.7318 4.17166 12.698C3.37483 12.6618 2.63574 12.502 2.06699 11.9333C1.49824 11.3645 1.33841 10.6254 1.30224 9.82858C1.26841 9.09067 1.26141 8.869 1.26141 7C1.26141 5.131 1.26841 4.90933 1.30224 4.17142C1.33841 3.37458 1.49824 2.6355 2.06699 2.06675C2.63574 1.498 3.37483 1.33817 4.17166 1.302C4.90958 1.26817 5.13124 1.26117 7.00024 1.26117ZM7.00024 0C5.09916 0 4.86058 0.00816667 4.11391 0.042C2.97641 0.0939167 1.97716 0.37275 1.17508 1.17483C0.372994 1.97692 0.0941608 2.97617 0.0422441 4.11367C0.00841081 4.86033 0.000244141 5.09892 0.000244141 7C0.000244141 8.90108 0.00841081 9.13967 0.0422441 9.88633C0.0941608 11.0238 0.372994 12.0231 1.17508 12.8252C1.97716 13.6272 2.97641 13.9061 4.11391 13.958C4.86058 13.9918 5.09916 14 7.00024 14C8.90133 14 9.13991 13.9918 9.88658 13.958C11.0241 13.9061 12.0233 13.6272 12.8254 12.8252C13.6275 12.0231 13.9063 11.0238 13.9582 9.88633C13.9921 9.13967 14.0002 8.90108 14.0002 7C14.0002 5.09892 13.9921 4.86033 13.9582 4.11367C13.9063 2.97617 13.6275 1.97692 12.8254 1.17483C12.0233 0.37275 11.0241 0.0939167 9.88658 0.042C9.13991 0.00816667 8.90133 0 7.00024 0Z" fill="#CCCED8"/>
<path d="M6.9999 3.40576C5.01481 3.40576 3.4054 5.01518 3.4054 7.00026C3.4054 8.98535 5.01481 10.5948 6.9999 10.5948C8.98498 10.5948 10.5944 8.98535 10.5944 7.00026C10.5944 5.01518 8.98498 3.40576 6.9999 3.40576ZM6.9999 9.3336C5.71131 9.3336 4.66656 8.28885 4.66656 7.00026C4.66656 5.71168 5.71131 4.66693 6.9999 4.66693C8.28848 4.66693 9.33323 5.71168 9.33323 7.00026C9.33323 8.28885 8.28848 9.3336 6.9999 9.3336Z" fill="#CCCED8"/>
<path d="M10.7373 4.10285C11.2013 4.10285 11.5773 3.72677 11.5773 3.26285C11.5773 2.79893 11.2013 2.42285 10.7373 2.42285C10.2734 2.42285 9.89734 2.79893 9.89734 3.26285C9.89734 3.72677 10.2734 4.10285 10.7373 4.10285Z" fill="#CCCED8"/>
</g>
<defs>
<clipPath id="clip0_949_5628">
<rect width="14" height="14" fill="white" transform="translate(0.000366211 -0.000488281)"/>
</clipPath>
</defs>
</svg>
