<svg width="213" height="40" viewBox="0 0 213 40" fill="none" xmlns="http://www.w3.org/2000/svg">
<path d="M69.4993 17.4191H64.8145V33.4754C64.8142 33.6217 64.7559 33.7619 64.6525 33.8654C64.549 33.9688 64.4088 34.0271 64.2625 34.0274H60.6495C60.5032 34.0271 60.363 33.9688 60.2596 33.8654C60.1561 33.7619 60.0979 33.6217 60.0976 33.4754V17.4191H55.3852C55.3143 17.422 55.2434 17.4107 55.177 17.3857C55.1105 17.3607 55.0497 17.3226 54.9982 17.2737C54.9467 17.2248 54.9056 17.166 54.8773 17.1009C54.8489 17.0358 54.834 16.9656 54.8333 16.8946V14.0546C54.834 13.9836 54.8489 13.9135 54.8773 13.8484C54.9056 13.7832 54.9467 13.7245 54.9982 13.6756C55.0497 13.6266 55.1105 13.5886 55.177 13.5636C55.2434 13.5386 55.3143 13.5272 55.3852 13.5301H69.4982C69.6445 13.5233 69.7875 13.5746 69.8961 13.6729C70.0047 13.7711 70.0699 13.9084 70.0776 14.0546V16.8958C70.0696 17.0416 70.0044 17.1784 69.8961 17.2764C69.7878 17.3744 69.6452 17.4257 69.4993 17.4191Z" fill="#f71963"/>
<path d="M84.5385 33.8211C83.5732 33.9585 81.9493 34.1795 78.9708 34.1795C75.4128 34.1795 72.2693 33.2691 72.2693 28.2499V19.0886C72.2693 14.0693 75.4414 13.1864 78.9983 13.1864C81.9757 13.1864 83.5732 13.4074 84.5385 13.5448C84.9245 13.5998 85.0905 13.7384 85.0905 14.0968V16.6654C85.0902 16.8117 85.032 16.9519 84.9285 17.0554C84.8251 17.1588 84.6848 17.2171 84.5385 17.2174H78.7234C77.4271 17.2174 76.9587 17.6583 76.9587 19.0931V21.6033H84.3187C84.465 21.6036 84.6052 21.6619 84.7086 21.7653C84.8121 21.8688 84.8703 22.009 84.8706 22.1553V24.7754C84.8703 24.9217 84.8121 25.062 84.7086 25.1654C84.6052 25.2688 84.465 25.3271 84.3187 25.3274H76.9587V28.251C76.9587 29.6847 77.4271 30.1268 78.7234 30.1268H84.5385C84.6848 30.1271 84.8251 30.1853 84.9285 30.2888C85.032 30.3922 85.0902 30.5324 85.0905 30.6787V33.2439C85.0905 33.6 84.9245 33.7661 84.5385 33.8211Z" fill="#f71963"/>
<path d="M105.348 34.0238H100.963C100.604 34.0238 100.438 33.9092 100.246 33.6103L96.444 27.5742L92.9993 33.4775C92.8058 33.8085 92.6134 34.0295 92.3122 34.0295H88.2308C87.9549 34.0295 87.8174 33.8634 87.8174 33.671C87.8228 33.6035 87.8415 33.5378 87.8724 33.4775L93.8467 23.5146L87.8106 14.0544C87.78 14.0039 87.7612 13.9472 87.7556 13.8884C87.7655 13.7871 87.8139 13.6934 87.8908 13.6267C87.9677 13.56 88.0673 13.5254 88.169 13.5299H92.6088C92.9123 13.5299 93.1333 13.8059 93.2959 14.0544L96.8241 19.6256L100.239 14.0544C100.376 13.8059 100.625 13.5299 100.926 13.5299H105.007C105.109 13.5254 105.209 13.56 105.286 13.6267C105.363 13.6934 105.411 13.7871 105.421 13.8884C105.415 13.9472 105.396 14.0039 105.366 14.0544L99.3595 23.573L105.624 33.4775C105.672 33.5617 105.701 33.6563 105.706 33.7535C105.707 33.9138 105.569 34.0238 105.348 34.0238Z" fill="#f71963"/>
<path d="M48.2231 13.4184C48.1246 13.4186 48.0293 13.453 47.9533 13.5156C47.8773 13.5783 47.8253 13.6653 47.8063 13.7619L43.8028 28.5792C43.7478 28.8826 43.6654 28.9926 43.4169 28.9926C43.1684 28.9926 43.0859 28.8781 43.0309 28.5792L39.0229 13.7585C39.0038 13.6619 38.9519 13.5748 38.8759 13.5122C38.7999 13.4496 38.7045 13.4152 38.606 13.4149H34.6655C34.6015 13.415 34.5382 13.4295 34.4805 13.4574C34.4228 13.4853 34.3722 13.5259 34.3323 13.5761C34.2925 13.6263 34.2645 13.6848 34.2504 13.7473C34.2363 13.8098 34.2365 13.8747 34.251 13.9371C34.251 13.9371 39.1408 30.9302 39.1947 31.0974C39.8474 33.122 41.4312 34.0897 43.4466 34.0897C45.3659 34.0897 47.0413 33.0762 47.6963 31.1031C47.7742 30.8741 52.5552 13.936 52.5552 13.936C52.5695 13.8736 52.5696 13.8089 52.5554 13.7465C52.5412 13.6842 52.5132 13.6258 52.4733 13.5757C52.4335 13.5257 52.3829 13.4852 52.3254 13.4574C52.2678 13.4296 52.2047 13.4151 52.1407 13.4149L48.2231 13.4184Z" fill="#f71963"/>
<path d="M110.952 15.4812V34.8344H113.751V26.8252H121.879V24.3241H113.751V17.9822H123.16V15.4812H110.952ZM130.629 33.0182C128.903 33.0182 127.741 32.0952 127.741 30.4278C127.741 28.4925 129.647 27.7184 131.463 27.7184C132.475 27.7184 133.637 27.897 134.56 28.2245V29.4155C134.56 31.589 132.327 33.0182 130.629 33.0182ZM134.679 33.1968H134.738L135.244 34.8344H137.269V25.4853C137.269 21.0787 134.828 19.5007 131.433 19.5007C128.486 19.5007 126.104 20.781 125.776 23.8775V24.1157H128.337C128.426 22.4483 129.617 21.704 131.314 21.704C133.547 21.704 134.56 22.9247 134.56 24.9196V26.0213C133.577 25.7533 132.386 25.6044 131.314 25.6044C129.558 25.6044 127.384 26.1403 126.253 27.3313C125.449 28.1352 125.002 29.1178 125.002 30.4874V30.6958C125.002 33.4648 127.324 35.3108 130.153 35.3108C131.91 35.3108 133.696 34.5069 134.679 33.1968ZM146.861 35.281C149.6 35.281 152.488 34.0305 152.488 30.6363C152.488 29.2666 152.101 28.3734 151.416 27.6886C149.422 25.6937 145.64 26.1701 144.271 24.8005C143.913 24.4432 143.735 23.9966 143.735 23.4904C143.735 22.3888 144.687 21.6147 146.385 21.6147C148.112 21.6147 149.243 22.1804 149.332 23.9073H151.923V23.6691C151.893 20.8405 149.392 19.5007 146.474 19.5007C143.735 19.5007 141.055 20.7512 141.055 23.7584V23.9668C141.055 25.0089 141.561 25.9915 142.127 26.5572C144.062 28.4925 147.844 28.0459 149.273 29.4751C149.66 29.8621 149.838 30.3087 149.838 30.9042C149.838 32.2738 148.826 33.1075 146.831 33.1075C144.539 33.1075 143.407 32.0952 143.407 30.1301H140.817V30.3683C140.936 33.6434 143.258 35.281 146.861 35.281ZM159.014 26.1106C159.014 24.6219 159.282 23.6393 159.847 23.0438C160.592 22.2102 161.604 21.8826 162.795 21.8826C163.837 21.8826 164.73 22.1804 165.326 22.7759C165.921 23.3713 166.189 24.2348 166.189 25.7533V34.8344H168.869V25.2769C168.869 23.4309 168.393 22.0017 167.499 21.0787C166.487 20.0069 165.088 19.5007 163.301 19.5007C161.723 19.5007 160.145 20.1855 159.073 21.5253H159.014V13.9925H156.304V34.8344H159.014V26.1106ZM176.413 15.2728C176.413 14.1711 175.549 13.5459 174.477 13.5459C173.405 13.5459 172.542 14.1711 172.542 15.2728V15.3621C172.542 16.434 173.405 17.1188 174.477 17.1188C175.549 17.1188 176.413 16.434 176.413 15.3621V15.2728ZM175.817 34.8344V19.9473H173.108V34.8344H175.817ZM179.576 27.1527V27.6588C179.576 32.5418 182.941 35.3108 186.99 35.3108C191.039 35.3108 194.404 32.5418 194.404 27.6588V27.1527C194.404 22.2399 191.069 19.5007 186.99 19.5007C182.971 19.5007 179.576 22.2399 179.576 27.1527ZM182.316 27.3909C182.316 24.2348 183.834 21.7933 186.99 21.7933C190.146 21.7933 191.665 24.2348 191.665 27.3909C191.665 30.5172 190.146 32.9884 186.99 32.9884C183.834 32.9884 182.316 30.5172 182.316 27.3909ZM201 26.1106C201 24.6219 201.268 23.6393 201.834 23.0438C202.578 22.2102 203.59 21.8826 204.781 21.8826C205.823 21.8826 206.717 22.1804 207.312 22.7759C207.908 23.3713 208.176 24.2348 208.176 25.7533V34.8344H210.855V25.2769C210.855 23.4309 210.379 22.0017 209.486 21.0787C208.473 20.0069 207.074 19.5007 205.288 19.5007C203.65 19.5007 202.012 20.2153 200.911 21.704H200.851L200.315 19.9473H198.291V34.8344H201V26.1106Z" fill="#142032"/>
<g clip-path="url(#clip0_1000_2157)">
<path d="M0.093142 18.6279C0.24835 19.3916 0.511758 20.1101 0.876274 20.7635C2.06279 22.8915 2.61954 25.1075 2.61954 27.1153V35.4143C2.61954 35.7854 2.9205 36.0866 3.29185 36.0866H5.98133C6.35242 36.0866 6.65364 35.7854 6.65364 35.4143V27.9134C6.65364 26.3978 7.00292 24.8767 7.66446 23.5124L7.72592 23.4134C10.9094 26.0632 13.4579 29.4407 15.1215 33.2233C15.8863 34.9626 17.5828 36.0866 19.4432 36.0866H24.9417C27.5965 36.0866 29.683 36.0317 31.2364 35.7644C32.0077 35.6315 34.3548 35.2278 34.3548 33.3971C34.3548 32.3619 33.497 30.8586 32.1695 29.5676C31.2782 28.7002 29.401 27.1893 26.8475 26.8138C26.649 26.7846 26.4481 26.8455 26.2992 26.9797C25.6326 27.5814 24.3264 28.0181 23.1937 28.0181C21.5836 28.0181 19.8786 27.099 19.2281 25.8802C19.2153 25.8563 19.2011 25.8331 19.1856 25.8108L14.6974 19.4074C11.9197 15.4447 8.60359 11.8923 4.84157 8.84902C4.59628 8.65047 4.24621 8.64916 3.99961 8.84586C2.95018 9.68231 2.07461 10.6829 1.39705 11.8198C0.0902532 14.0134 -0.330463 16.5149 0.0889401 18.6077C0.0902532 18.6145 0.0915663 18.6214 0.093142 18.6279ZM5.30877 27.9134V34.7417H3.96415V27.1153C3.96415 26.913 3.95759 26.6951 3.94498 26.4682C3.7404 22.7826 2.13869 20.3491 1.83772 19.6865C3.54265 20.4773 5.15986 21.4445 6.66441 22.574C5.93853 23.749 5.30877 25.8103 5.30877 27.9134ZM2.55231 12.5081C3.05549 11.6638 3.68394 10.9045 4.42479 10.2454C7.91316 13.1308 10.9966 16.4705 13.5965 20.1792L18.0621 26.5509C18.9561 28.1828 21.1059 29.363 23.1937 29.363C24.5178 29.363 26.0011 28.8916 26.9381 28.1925C28.9734 28.5799 30.4914 29.8108 31.2319 30.5314C32.3993 31.667 33.0099 32.8325 33.0099 33.3971C33.0099 33.9736 31.9216 34.2819 31.0082 34.4392C29.5488 34.6903 27.5274 34.7417 24.9417 34.7417H19.4432C18.1159 34.7417 16.9026 33.9334 16.3524 32.682C13.441 26.0627 8.06023 20.7893 1.34846 18.0031C1.10449 16.3486 1.47216 14.3215 2.55231 12.5081Z" fill="#f71963"/>
<path d="M19.739 33.416H27.6418C28.0315 33.416 28.3474 33.1212 28.3474 32.758C28.3474 32.3946 28.0315 32.0999 27.6418 32.0999H19.739C19.3493 32.0999 19.0332 32.3946 19.0332 32.758C19.0332 33.1212 19.3493 33.416 19.739 33.416Z" fill="#142032"/>
</g>
<path d="M191.302 9.39947C192.075 9.0875 192.58 8.35956 192.58 7.40879V7.26023C192.58 5.4181 190.99 4.73473 188.925 4.73473H185.167V14.3911H189.356C191.451 14.3911 192.907 13.6037 192.907 11.7616V11.613C192.907 10.5731 192.194 9.66688 191.302 9.42919V9.39947ZM189.119 6.54714C189.817 6.54714 190.099 7.02253 190.099 7.49792C190.099 7.91389 189.847 8.59726 189.089 8.59726H187.529V6.54714H189.119ZM189.252 10.4097C190.292 10.4097 190.47 11.1673 190.47 11.5387C190.47 12.0735 190.292 12.5638 189.237 12.5638H187.529V10.4097H189.252ZM201.076 7.55734C201.076 5.49238 199.546 4.51189 197.6 4.51189C195.832 4.51189 194.094 5.46266 194.094 7.46821C194.094 7.95845 194.198 8.4487 194.287 8.68639H196.411V8.41899C196.352 8.15158 196.322 7.82475 196.322 7.63162C196.322 6.85912 196.768 6.35402 197.54 6.35402C198.372 6.35402 198.758 6.84426 198.758 7.61677C198.758 8.50812 198.446 9.05779 197.822 9.71145C196.708 10.8702 195.549 11.925 194.123 13.0689V14.3911H201.284V12.4152H199.159C198.862 12.4152 198.016 12.4301 197.718 12.4746V12.4449C199.234 11.2267 201.076 9.65202 201.076 7.76533V7.55734ZM209.19 9.39947C209.963 9.0875 210.468 8.35956 210.468 7.40879V7.26023C210.468 5.4181 208.878 4.73473 206.813 4.73473H203.055V14.3911H207.244C209.339 14.3911 210.795 13.6037 210.795 11.7616V11.613C210.795 10.5731 210.082 9.66688 209.19 9.42919V9.39947ZM207.007 6.54714C207.705 6.54714 207.987 7.02253 207.987 7.49792C207.987 7.91389 207.735 8.59726 206.977 8.59726H205.417V6.54714H207.007ZM207.14 10.4097C208.18 10.4097 208.358 11.1673 208.358 11.5387C208.358 12.0735 208.18 12.5638 207.125 12.5638H205.417V10.4097H207.14Z" fill="#f71963"/>
<defs>
<clipPath id="clip0_1000_2157">
<rect width="34.422" height="34.3548" fill="white" transform="translate(0 5.16986)"/>
</clipPath>
</defs>
</svg>
